<?xml version="1.0" encoding="utf-8"?>
<!-- Generator: Adobe Illustrator 26.0.2, SVG Export Plug-In . SVG Version: 6.00 Build 0)  -->
<svg version="1.1" id="Layer_1" xmlns="http://www.w3.org/2000/svg" xmlns:xlink="http://www.w3.org/1999/xlink" x="0px" y="0px"
	 viewBox="0 0 546.3 546.3" style="enable-background:new 0 0 546.3 546.3;" xml:space="preserve">
<style type="text/css">
	.st0{fill:#004899;}
	.st1{fill:#FFFFFF;}
	.st2{fill-rule:evenodd;clip-rule:evenodd;fill:#A3C4E8;}
</style>
<rect x="-6" y="-6.1" class="st0" width="559.5" height="559.5"/>
<g>
	<g>
		<path id="qr_pixels_00000090267082241340619200000003619873222589174419_" class="st1" d="M203.5,58.2L203.5,58.2
			c3.4,0,6.1,2.7,6.1,6.1c0,0,0,0,0,0l0,0c0,3.4-2.7,6.1-6.1,6.1l0,0l0,0c-3.4,0-6.1-2.7-6.1-6.1v0l0,0
			C197.5,61,200.2,58.2,203.5,58.2L203.5,58.2z M273.1,58.2L273.1,58.2c3.4,0,6.1,2.7,6.1,6.1c0,0,0,0,0,0l0,0
			c0,3.4-2.7,6.1-6.1,6.1l0,0l0,0c-3.4,0-6.1-2.7-6.1-6.1v0l0,0C267.1,61,269.8,58.2,273.1,58.2L273.1,58.2z M290.6,58.2L290.6,58.2
			c3.4,0,6.1,2.7,6.1,6.1c0,0,0,0,0,0l0,0c0,3.4-2.7,6.1-6.1,6.1l0,0l0,0c-3.4,0-6.1-2.7-6.1-6.1v0l0,0
			C284.5,61,287.2,58.2,290.6,58.2L290.6,58.2z M325.4,58.2L325.4,58.2c3.4,0,6.1,2.7,6.1,6.1c0,0,0,0,0,0l0,0
			c0,3.4-2.7,6.1-6.1,6.1l0,0l0,0c-3.4,0-6.1-2.7-6.1-6.1v0l0,0C319.3,61,322,58.2,325.4,58.2L325.4,58.2z M342.8,58.2L342.8,58.2
			c3.4,0,6.1,2.7,6.1,6.1c0,0,0,0,0,0l0,0c0,3.4-2.7,6.1-6.1,6.1l0,0l0,0c-3.4,0-6.1-2.7-6.1-6.1v0l0,0
			C336.7,61,339.4,58.2,342.8,58.2L342.8,58.2z M203.5,75.6L203.5,75.6c3.4,0,6.1,2.7,6.1,6.1c0,0,0,0,0,0v0c0,3.4-2.7,6.1-6.1,6.1
			l0,0l0,0c-3.4,0-6.1-2.7-6.1-6.1v0l0,0C197.5,78.4,200.2,75.6,203.5,75.6L203.5,75.6z M220.9,75.6L220.9,75.6
			c3.4,0,6.1,2.7,6.1,6.1c0,0,0,0,0,0v0c0,3.4-2.7,6.1-6.1,6.1l0,0l0,0c-3.4,0-6.1-2.7-6.1-6.1v0l0,0
			C214.9,78.4,217.6,75.6,220.9,75.6L220.9,75.6z M238.3,75.6L238.3,75.6c3.4,0,6.1,2.7,6.1,6.1c0,0,0,0,0,0v0
			c0,3.4-2.7,6.1-6.1,6.1l0,0l0,0c-3.4,0-6.1-2.7-6.1-6.1v0l0,0C232.3,78.4,235,75.6,238.3,75.6L238.3,75.6z M325.4,75.6L325.4,75.6
			c3.4,0,6.1,2.7,6.1,6.1c0,0,0,0,0,0v0c0,3.4-2.7,6.1-6.1,6.1l0,0l0,0c-3.4,0-6.1-2.7-6.1-6.1v0l0,0
			C319.3,78.4,322,75.6,325.4,75.6L325.4,75.6z M203.5,93L203.5,93c3.4,0,6.1,2.7,6.1,6.1v0l0,0c0,3.4-2.7,6.1-6.1,6.1l0,0l0,0
			c-3.4,0-6.1-2.7-6.1-6.1l0,0l0,0C197.5,95.8,200.2,93,203.5,93L203.5,93z M273.1,93L273.1,93c3.4,0,6.1,2.7,6.1,6.1v0l0,0
			c0,3.4-2.7,6.1-6.1,6.1l0,0l0,0c-3.4,0-6.1-2.7-6.1-6.1l0,0l0,0C267.1,95.8,269.8,93,273.1,93L273.1,93z M290.6,93L290.6,93
			c3.4,0,6.1,2.7,6.1,6.1v0l0,0c0,3.4-2.7,6.1-6.1,6.1l0,0l0,0c-3.4,0-6.1-2.7-6.1-6.1l0,0l0,0C284.5,95.8,287.2,93,290.6,93
			L290.6,93z M308,93L308,93c3.4,0,6.1,2.7,6.1,6.1v0l0,0c0,3.4-2.7,6.1-6.1,6.1l0,0l0,0c-3.4,0-6.1-2.7-6.1-6.1l0,0l0,0
			C301.9,95.8,304.6,93,308,93L308,93z M325.4,93L325.4,93c3.4,0,6.1,2.7,6.1,6.1v0l0,0c0,3.4-2.7,6.1-6.1,6.1l0,0l0,0
			c-3.4,0-6.1-2.7-6.1-6.1l0,0l0,0C319.3,95.8,322,93,325.4,93L325.4,93z M220.9,110.5L220.9,110.5c3.4,0,6.1,2.7,6.1,6.1v0l0,0
			c0,3.4-2.7,6.1-6.1,6.1l0,0l0,0c-3.4,0-6.1-2.7-6.1-6.1v0l0,0C214.9,113.2,217.6,110.5,220.9,110.5L220.9,110.5z M273.1,110.5
			L273.1,110.5c3.4,0,6.1,2.7,6.1,6.1v0l0,0c0,3.4-2.7,6.1-6.1,6.1l0,0l0,0c-3.4,0-6.1-2.7-6.1-6.1v0l0,0
			C267.1,113.2,269.8,110.5,273.1,110.5L273.1,110.5z M308,110.5L308,110.5c3.4,0,6.1,2.7,6.1,6.1v0l0,0c0,3.4-2.7,6.1-6.1,6.1l0,0
			l0,0c-3.4,0-6.1-2.7-6.1-6.1v0l0,0C301.9,113.2,304.6,110.5,308,110.5L308,110.5z M220.9,127.9L220.9,127.9c3.4,0,6.1,2.7,6.1,6.1
			c0,0,0,0,0,0l0,0c0,3.4-2.7,6.1-6.1,6.1l0,0l0,0c-3.4,0-6.1-2.7-6.1-6.1l0,0l0,0C214.9,130.6,217.6,127.9,220.9,127.9L220.9,127.9
			z M255.7,127.9L255.7,127.9c3.4,0,6.1,2.7,6.1,6.1c0,0,0,0,0,0l0,0c0,3.4-2.7,6.1-6.1,6.1l0,0l0,0c-3.4,0-6.1-2.7-6.1-6.1l0,0l0,0
			C249.7,130.6,252.4,127.9,255.7,127.9L255.7,127.9z M290.6,127.9L290.6,127.9c3.4,0,6.1,2.7,6.1,6.1c0,0,0,0,0,0l0,0
			c0,3.4-2.7,6.1-6.1,6.1l0,0l0,0c-3.4,0-6.1-2.7-6.1-6.1l0,0l0,0C284.5,130.6,287.2,127.9,290.6,127.9L290.6,127.9z M308,127.9
			L308,127.9c3.4,0,6.1,2.7,6.1,6.1c0,0,0,0,0,0l0,0c0,3.4-2.7,6.1-6.1,6.1l0,0l0,0c-3.4,0-6.1-2.7-6.1-6.1l0,0l0,0
			C301.9,130.6,304.6,127.9,308,127.9L308,127.9z M325.4,127.9L325.4,127.9c3.4,0,6.1,2.7,6.1,6.1c0,0,0,0,0,0l0,0
			c0,3.4-2.7,6.1-6.1,6.1l0,0l0,0c-3.4,0-6.1-2.7-6.1-6.1l0,0l0,0C319.3,130.6,322,127.9,325.4,127.9L325.4,127.9z M203.5,145.3
			L203.5,145.3c3.4,0,6.1,2.7,6.1,6.1c0,0,0,0,0,0l0,0c0,3.4-2.7,6.1-6.1,6.1l0,0l0,0c-3.4,0-6.1-2.7-6.1-6.1v0l0,0
			C197.5,148,200.2,145.3,203.5,145.3L203.5,145.3z M255.7,145.3L255.7,145.3c3.4,0,6.1,2.7,6.1,6.1c0,0,0,0,0,0l0,0
			c0,3.4-2.7,6.1-6.1,6.1l0,0l0,0c-3.4,0-6.1-2.7-6.1-6.1v0l0,0C249.7,148,252.4,145.3,255.7,145.3L255.7,145.3z M273.1,145.3
			L273.1,145.3c3.4,0,6.1,2.7,6.1,6.1c0,0,0,0,0,0l0,0c0,3.4-2.7,6.1-6.1,6.1l0,0l0,0c-3.4,0-6.1-2.7-6.1-6.1v0l0,0
			C267.1,148,269.8,145.3,273.1,145.3L273.1,145.3z M325.4,145.3L325.4,145.3c3.4,0,6.1,2.7,6.1,6.1c0,0,0,0,0,0l0,0
			c0,3.4-2.7,6.1-6.1,6.1l0,0l0,0c-3.4,0-6.1-2.7-6.1-6.1v0l0,0C319.3,148,322,145.3,325.4,145.3L325.4,145.3z M220.9,162.7
			L220.9,162.7c3.4,0,6.1,2.7,6.1,6.1v0l0,0c0,3.4-2.7,6.1-6.1,6.1l0,0l0,0c-3.4,0-6.1-2.7-6.1-6.1c0,0,0,0,0,0l0,0
			C214.9,165.4,217.6,162.7,220.9,162.7L220.9,162.7z M255.7,162.7L255.7,162.7c3.4,0,6.1,2.7,6.1,6.1v0l0,0c0,3.4-2.7,6.1-6.1,6.1
			l0,0l0,0c-3.4,0-6.1-2.7-6.1-6.1c0,0,0,0,0,0l0,0C249.7,165.4,252.4,162.7,255.7,162.7L255.7,162.7z M290.6,162.7L290.6,162.7
			c3.4,0,6.1,2.7,6.1,6.1v0l0,0c0,3.4-2.7,6.1-6.1,6.1l0,0l0,0c-3.4,0-6.1-2.7-6.1-6.1c0,0,0,0,0,0l0,0
			C284.5,165.4,287.2,162.7,290.6,162.7L290.6,162.7z M325.4,162.7L325.4,162.7c3.4,0,6.1,2.7,6.1,6.1v0l0,0c0,3.4-2.7,6.1-6.1,6.1
			l0,0l0,0c-3.4,0-6.1-2.7-6.1-6.1c0,0,0,0,0,0l0,0C319.3,165.4,322,162.7,325.4,162.7L325.4,162.7z M203.5,180.1L203.5,180.1
			c3.4,0,6.1,2.7,6.1,6.1l0,0l0,0c0,3.4-2.7,6.1-6.1,6.1l0,0l0,0c-3.4,0-6.1-2.7-6.1-6.1c0,0,0,0,0,0l0,0
			C197.5,182.8,200.2,180.1,203.5,180.1L203.5,180.1z M238.3,180.1L238.3,180.1c3.4,0,6.1,2.7,6.1,6.1l0,0l0,0
			c0,3.4-2.7,6.1-6.1,6.1l0,0l0,0c-3.4,0-6.1-2.7-6.1-6.1c0,0,0,0,0,0l0,0C232.3,182.8,235,180.1,238.3,180.1L238.3,180.1z
			 M255.7,180.1L255.7,180.1c3.4,0,6.1,2.7,6.1,6.1l0,0l0,0c0,3.4-2.7,6.1-6.1,6.1l0,0l0,0c-3.4,0-6.1-2.7-6.1-6.1c0,0,0,0,0,0l0,0
			C249.7,182.8,252.4,180.1,255.7,180.1L255.7,180.1z M290.6,180.1L290.6,180.1c3.4,0,6.1,2.7,6.1,6.1l0,0l0,0
			c0,3.4-2.7,6.1-6.1,6.1l0,0l0,0c-3.4,0-6.1-2.7-6.1-6.1c0,0,0,0,0,0l0,0C284.5,182.8,287.2,180.1,290.6,180.1L290.6,180.1z
			 M308,180.1L308,180.1c3.4,0,6.1,2.7,6.1,6.1l0,0l0,0c0,3.4-2.7,6.1-6.1,6.1l0,0l0,0c-3.4,0-6.1-2.7-6.1-6.1c0,0,0,0,0,0l0,0
			C301.9,182.8,304.6,180.1,308,180.1L308,180.1z M342.8,180.1L342.8,180.1c3.4,0,6.1,2.7,6.1,6.1l0,0l0,0c0,3.4-2.7,6.1-6.1,6.1
			l0,0l0,0c-3.4,0-6.1-2.7-6.1-6.1c0,0,0,0,0,0l0,0C336.7,182.8,339.4,180.1,342.8,180.1L342.8,180.1z M99.1,197.5L99.1,197.5
			c3.4,0,6.1,2.7,6.1,6.1l0,0l0,0c0,3.4-2.7,6.1-6.1,6.1l0,0l0,0c-3.4,0-6.1-2.7-6.1-6.1l0,0l0,0C93,200.2,95.8,197.5,99.1,197.5
			L99.1,197.5z M116.5,197.5L116.5,197.5c3.4,0,6.1,2.7,6.1,6.1l0,0l0,0c0,3.4-2.7,6.1-6.1,6.1h0l0,0c-3.4,0-6.1-2.7-6.1-6.1l0,0
			l0,0C110.5,200.2,113.2,197.5,116.5,197.5L116.5,197.5z M133.9,197.5L133.9,197.5c3.4,0,6.1,2.7,6.1,6.1l0,0l0,0
			c0,3.4-2.7,6.1-6.1,6.1c0,0,0,0,0,0l0,0c-3.4,0-6.1-2.7-6.1-6.1l0,0l0,0C127.9,200.2,130.6,197.5,133.9,197.5
			C133.9,197.5,133.9,197.5,133.9,197.5z M203.5,197.5L203.5,197.5c3.4,0,6.1,2.7,6.1,6.1v0l0,0c0,3.4-2.7,6.1-6.1,6.1h0l0,0
			c-3.4,0-6.1-2.7-6.1-6.1v0l0,0C197.5,200.2,200.2,197.5,203.5,197.5L203.5,197.5z M255.7,197.5L255.7,197.5c3.4,0,6.1,2.7,6.1,6.1
			v0l0,0c0,3.4-2.7,6.1-6.1,6.1h0l0,0c-3.4,0-6.1-2.7-6.1-6.1v0l0,0C249.7,200.2,252.4,197.5,255.7,197.5L255.7,197.5z M342.8,197.5
			L342.8,197.5c3.4,0,6.1,2.7,6.1,6.1v0l0,0c0,3.4-2.7,6.1-6.1,6.1l0,0l0,0c-3.4,0-6.1-2.7-6.1-6.1v0l0,0
			C336.7,200.2,339.4,197.5,342.8,197.5L342.8,197.5z M360.2,197.5L360.2,197.5c3.4,0,6.1,2.7,6.1,6.1v0l0,0c0,3.4-2.7,6.1-6.1,6.1
			l0,0l0,0c-3.4,0-6.1-2.7-6.1-6.1v0l0,0C354.1,200.2,356.8,197.5,360.2,197.5L360.2,197.5z M377.6,197.5L377.6,197.5
			c3.4,0,6.1,2.7,6.1,6.1v0l0,0c0,3.4-2.7,6.1-6.1,6.1l0,0l0,0c-3.4,0-6.1-2.7-6.1-6.1v0l0,0C371.5,200.2,374.2,197.5,377.6,197.5
			L377.6,197.5z M395,197.5L395,197.5c3.4,0,6.1,2.7,6.1,6.1v0l0,0c0,3.4-2.7,6.1-6.1,6.1l0,0l0,0c-3.4,0-6.1-2.7-6.1-6.1v0l0,0
			C388.9,200.2,391.6,197.5,395,197.5L395,197.5z M447.2,197.5L447.2,197.5c3.4,0,6.1,2.7,6.1,6.1v0l0,0c0,3.4-2.7,6.1-6.1,6.1l0,0
			l0,0c-3.4,0-6.1-2.7-6.1-6.1v0l0,0C441.1,200.2,443.8,197.5,447.2,197.5L447.2,197.5z M464.6,197.5L464.6,197.5
			c3.4,0,6.1,2.7,6.1,6.1v0l0,0c0,3.4-2.7,6.1-6.1,6.1l0,0l0,0c-3.4,0-6.1-2.7-6.1-6.1v0l0,0C458.5,200.2,461.2,197.5,464.6,197.5
			L464.6,197.5z M482,197.5L482,197.5c3.4,0,6.1,2.7,6.1,6.1v0l0,0c0,3.4-2.7,6.1-6.1,6.1l0,0l0,0c-3.4,0-6.1-2.7-6.1-6.1v0l0,0
			C475.9,200.2,478.6,197.5,482,197.5L482,197.5z M64.3,214.9L64.3,214.9c3.4,0,6.1,2.7,6.1,6.1l0,0l0,0c0,3.4-2.7,6.1-6.1,6.1h0
			l0,0c-3.4,0-6.1-2.7-6.1-6.1l0,0l0,0C58.2,217.6,61,214.9,64.3,214.9L64.3,214.9z M81.7,214.9L81.7,214.9c3.4,0,6.1,2.7,6.1,6.1
			l0,0l0,0c0,3.4-2.7,6.1-6.1,6.1h0l0,0c-3.4,0-6.1-2.7-6.1-6.1l0,0l0,0C75.6,217.6,78.4,214.9,81.7,214.9L81.7,214.9z M99.1,214.9
			L99.1,214.9c3.4,0,6.1,2.7,6.1,6.1l0,0l0,0c0,3.4-2.7,6.1-6.1,6.1l0,0l0,0c-3.4,0-6.1-2.7-6.1-6.1l0,0l0,0
			C93,217.6,95.8,214.9,99.1,214.9L99.1,214.9z M151.3,214.9L151.3,214.9c3.4,0,6.1,2.7,6.1,6.1l0,0l0,0c0,3.4-2.7,6.1-6.1,6.1
			c0,0,0,0,0,0l0,0c-3.4,0-6.1-2.7-6.1-6.1l0,0l0,0C145.3,217.6,148,214.9,151.3,214.9L151.3,214.9z M168.7,214.9L168.7,214.9
			c3.4,0,6.1,2.7,6.1,6.1l0,0l0,0c0,3.4-2.7,6.1-6.1,6.1l0,0l0,0c-3.4,0-6.1-2.7-6.1-6.1l0,0l0,0
			C162.7,217.6,165.4,214.9,168.7,214.9C168.7,214.9,168.7,214.9,168.7,214.9z M203.5,214.9L203.5,214.9c3.4,0,6.1,2.7,6.1,6.1v0
			l0,0c0,3.4-2.7,6.1-6.1,6.1h0l0,0c-3.4,0-6.1-2.7-6.1-6.1v0l0,0C197.5,217.6,200.2,214.9,203.5,214.9L203.5,214.9z M220.9,214.9
			L220.9,214.9c3.4,0,6.1,2.7,6.1,6.1v0l0,0c0,3.4-2.7,6.1-6.1,6.1h0l0,0c-3.4,0-6.1-2.7-6.1-6.1v0l0,0
			C214.9,217.6,217.6,214.9,220.9,214.9L220.9,214.9z M255.7,214.9L255.7,214.9c3.4,0,6.1,2.7,6.1,6.1v0l0,0c0,3.4-2.7,6.1-6.1,6.1
			h0l0,0c-3.4,0-6.1-2.7-6.1-6.1v0l0,0C249.7,217.6,252.4,214.9,255.7,214.9L255.7,214.9z M273.1,214.9L273.1,214.9
			c3.4,0,6.1,2.7,6.1,6.1v0l0,0c0,3.4-2.7,6.1-6.1,6.1h0l0,0c-3.4,0-6.1-2.7-6.1-6.1v0l0,0C267.1,217.6,269.8,214.9,273.1,214.9
			L273.1,214.9z M290.6,214.9L290.6,214.9c3.4,0,6.1,2.7,6.1,6.1v0l0,0c0,3.4-2.7,6.1-6.1,6.1l0,0l0,0c-3.4,0-6.1-2.7-6.1-6.1v0l0,0
			C284.5,217.6,287.2,214.9,290.6,214.9L290.6,214.9z M308,214.9L308,214.9c3.4,0,6.1,2.7,6.1,6.1v0l0,0c0,3.4-2.7,6.1-6.1,6.1l0,0
			l0,0c-3.4,0-6.1-2.7-6.1-6.1v0l0,0C301.9,217.6,304.6,214.9,308,214.9L308,214.9z M342.8,214.9L342.8,214.9c3.4,0,6.1,2.7,6.1,6.1
			v0l0,0c0,3.4-2.7,6.1-6.1,6.1l0,0l0,0c-3.4,0-6.1-2.7-6.1-6.1v0l0,0C336.7,217.6,339.4,214.9,342.8,214.9L342.8,214.9z
			 M360.2,214.9L360.2,214.9c3.4,0,6.1,2.7,6.1,6.1v0l0,0c0,3.4-2.7,6.1-6.1,6.1l0,0l0,0c-3.4,0-6.1-2.7-6.1-6.1v0l0,0
			C354.1,217.6,356.8,214.9,360.2,214.9L360.2,214.9z M377.6,214.9L377.6,214.9c3.4,0,6.1,2.7,6.1,6.1v0l0,0c0,3.4-2.7,6.1-6.1,6.1
			l0,0l0,0c-3.4,0-6.1-2.7-6.1-6.1v0l0,0C371.5,217.6,374.2,214.9,377.6,214.9L377.6,214.9z M482,214.9L482,214.9
			c3.4,0,6.1,2.7,6.1,6.1v0l0,0c0,3.4-2.7,6.1-6.1,6.1l0,0l0,0c-3.4,0-6.1-2.7-6.1-6.1v0l0,0C475.9,217.6,478.6,214.9,482,214.9
			L482,214.9z M81.7,232.3L81.7,232.3c3.4,0,6.1,2.7,6.1,6.1l0,0l0,0c0,3.4-2.7,6.1-6.1,6.1h0l0,0c-3.4,0-6.1-2.7-6.1-6.1l0,0l0,0
			C75.6,235,78.4,232.3,81.7,232.3L81.7,232.3z M99.1,232.3L99.1,232.3c3.4,0,6.1,2.7,6.1,6.1l0,0l0,0c0,3.4-2.7,6.1-6.1,6.1l0,0
			l0,0c-3.4,0-6.1-2.7-6.1-6.1l0,0l0,0C93,235,95.8,232.3,99.1,232.3L99.1,232.3z M116.5,232.3L116.5,232.3c3.4,0,6.1,2.7,6.1,6.1
			l0,0l0,0c0,3.4-2.7,6.1-6.1,6.1h0l0,0c-3.4,0-6.1-2.7-6.1-6.1l0,0l0,0C110.5,235,113.2,232.3,116.5,232.3L116.5,232.3z
			 M133.9,232.3L133.9,232.3c3.4,0,6.1,2.7,6.1,6.1l0,0l0,0c0,3.4-2.7,6.1-6.1,6.1c0,0,0,0,0,0l0,0c-3.4,0-6.1-2.7-6.1-6.1l0,0l0,0
			C127.9,235,130.6,232.3,133.9,232.3C133.9,232.3,133.9,232.3,133.9,232.3z M151.3,232.3L151.3,232.3c3.4,0,6.1,2.7,6.1,6.1l0,0
			l0,0c0,3.4-2.7,6.1-6.1,6.1c0,0,0,0,0,0l0,0c-3.4,0-6.1-2.7-6.1-6.1l0,0l0,0C145.3,235,148,232.3,151.3,232.3L151.3,232.3z
			 M238.3,232.3L238.3,232.3c3.4,0,6.1,2.7,6.1,6.1v0l0,0c0,3.4-2.7,6.1-6.1,6.1h0l0,0c-3.4,0-6.1-2.7-6.1-6.1v0l0,0
			C232.3,235,235,232.3,238.3,232.3L238.3,232.3z M308,232.3L308,232.3c3.4,0,6.1,2.7,6.1,6.1v0l0,0c0,3.4-2.7,6.1-6.1,6.1l0,0l0,0
			c-3.4,0-6.1-2.7-6.1-6.1v0l0,0C301.9,235,304.6,232.3,308,232.3L308,232.3z M342.8,232.3L342.8,232.3c3.4,0,6.1,2.7,6.1,6.1v0l0,0
			c0,3.4-2.7,6.1-6.1,6.1l0,0l0,0c-3.4,0-6.1-2.7-6.1-6.1v0l0,0C336.7,235,339.4,232.3,342.8,232.3L342.8,232.3z M412.4,232.3
			L412.4,232.3c3.4,0,6.1,2.7,6.1,6.1v0l0,0c0,3.4-2.7,6.1-6.1,6.1l0,0l0,0c-3.4,0-6.1-2.7-6.1-6.1v0l0,0
			C406.3,235,409,232.3,412.4,232.3L412.4,232.3z M447.2,232.3L447.2,232.3c3.4,0,6.1,2.7,6.1,6.1v0l0,0c0,3.4-2.7,6.1-6.1,6.1l0,0
			l0,0c-3.4,0-6.1-2.7-6.1-6.1v0l0,0C441.1,235,443.8,232.3,447.2,232.3L447.2,232.3z M64.3,249.7L64.3,249.7c3.4,0,6.1,2.7,6.1,6.1
			l0,0l0,0c0,3.4-2.7,6.1-6.1,6.1h0l0,0c-3.4,0-6.1-2.7-6.1-6.1l0,0l0,0C58.2,252.4,61,249.7,64.3,249.7L64.3,249.7z M133.9,249.7
			L133.9,249.7c3.4,0,6.1,2.7,6.1,6.1l0,0l0,0c0,3.4-2.7,6.1-6.1,6.1c0,0,0,0,0,0l0,0c-3.4,0-6.1-2.7-6.1-6.1l0,0l0,0
			C127.9,252.4,130.6,249.7,133.9,249.7C133.9,249.7,133.9,249.7,133.9,249.7z M151.3,249.7L151.3,249.7c3.4,0,6.1,2.7,6.1,6.1l0,0
			l0,0c0,3.4-2.7,6.1-6.1,6.1c0,0,0,0,0,0l0,0c-3.4,0-6.1-2.7-6.1-6.1l0,0l0,0C145.3,252.4,148,249.7,151.3,249.7L151.3,249.7z
			 M168.7,249.7L168.7,249.7c3.4,0,6.1,2.7,6.1,6.1l0,0l0,0c0,3.4-2.7,6.1-6.1,6.1l0,0l0,0c-3.4,0-6.1-2.7-6.1-6.1l0,0l0,0
			C162.7,252.4,165.4,249.7,168.7,249.7C168.7,249.7,168.7,249.7,168.7,249.7z M220.9,249.7L220.9,249.7c3.4,0,6.1,2.7,6.1,6.1v0
			l0,0c0,3.4-2.7,6.1-6.1,6.1h0l0,0c-3.4,0-6.1-2.7-6.1-6.1v0l0,0C214.9,252.4,217.6,249.7,220.9,249.7L220.9,249.7z M273.1,249.7
			L273.1,249.7c3.4,0,6.1,2.7,6.1,6.1v0l0,0c0,3.4-2.7,6.1-6.1,6.1h0l0,0c-3.4,0-6.1-2.7-6.1-6.1v0l0,0
			C267.1,252.4,269.8,249.7,273.1,249.7L273.1,249.7z M290.6,249.7L290.6,249.7c3.4,0,6.1,2.7,6.1,6.1v0l0,0c0,3.4-2.7,6.1-6.1,6.1
			l0,0l0,0c-3.4,0-6.1-2.7-6.1-6.1v0l0,0C284.5,252.4,287.2,249.7,290.6,249.7L290.6,249.7z M308,249.7L308,249.7
			c3.4,0,6.1,2.7,6.1,6.1v0l0,0c0,3.4-2.7,6.1-6.1,6.1l0,0l0,0c-3.4,0-6.1-2.7-6.1-6.1v0l0,0C301.9,252.4,304.6,249.7,308,249.7
			L308,249.7z M377.6,249.7L377.6,249.7c3.4,0,6.1,2.7,6.1,6.1v0l0,0c0,3.4-2.7,6.1-6.1,6.1l0,0l0,0c-3.4,0-6.1-2.7-6.1-6.1v0l0,0
			C371.5,252.4,374.2,249.7,377.6,249.7L377.6,249.7z M395,249.7L395,249.7c3.4,0,6.1,2.7,6.1,6.1v0l0,0c0,3.4-2.7,6.1-6.1,6.1l0,0
			l0,0c-3.4,0-6.1-2.7-6.1-6.1v0l0,0C388.9,252.4,391.6,249.7,395,249.7L395,249.7z M447.2,249.7L447.2,249.7c3.4,0,6.1,2.7,6.1,6.1
			v0l0,0c0,3.4-2.7,6.1-6.1,6.1l0,0l0,0c-3.4,0-6.1-2.7-6.1-6.1v0l0,0C441.1,252.4,443.8,249.7,447.2,249.7L447.2,249.7z
			 M464.6,249.7L464.6,249.7c3.4,0,6.1,2.7,6.1,6.1v0l0,0c0,3.4-2.7,6.1-6.1,6.1l0,0l0,0c-3.4,0-6.1-2.7-6.1-6.1v0l0,0
			C458.5,252.4,461.2,249.7,464.6,249.7L464.6,249.7z M64.3,267.1L64.3,267.1c3.4,0,6.1,2.7,6.1,6.1l0,0l0,0c0,3.4-2.7,6.1-6.1,6.1
			h0l0,0c-3.4,0-6.1-2.7-6.1-6.1l0,0l0,0C58.2,269.8,61,267.1,64.3,267.1L64.3,267.1z M81.7,267.1L81.7,267.1c3.4,0,6.1,2.7,6.1,6.1
			l0,0l0,0c0,3.4-2.7,6.1-6.1,6.1h0l0,0c-3.4,0-6.1-2.7-6.1-6.1l0,0l0,0C75.6,269.8,78.4,267.1,81.7,267.1L81.7,267.1z M133.9,267.1
			L133.9,267.1c3.4,0,6.1,2.7,6.1,6.1l0,0l0,0c0,3.4-2.7,6.1-6.1,6.1c0,0,0,0,0,0l0,0c-3.4,0-6.1-2.7-6.1-6.1l0,0l0,0
			C127.9,269.8,130.6,267.1,133.9,267.1C133.9,267.1,133.9,267.1,133.9,267.1z M151.3,267.1L151.3,267.1c3.4,0,6.1,2.7,6.1,6.1l0,0
			l0,0c0,3.4-2.7,6.1-6.1,6.1c0,0,0,0,0,0l0,0c-3.4,0-6.1-2.7-6.1-6.1l0,0l0,0C145.3,269.8,148,267.1,151.3,267.1L151.3,267.1z
			 M203.5,267.1L203.5,267.1c3.4,0,6.1,2.7,6.1,6.1v0l0,0c0,3.4-2.7,6.1-6.1,6.1h0l0,0c-3.4,0-6.1-2.7-6.1-6.1v0l0,0
			C197.5,269.8,200.2,267.1,203.5,267.1L203.5,267.1z M255.7,267.1L255.7,267.1c3.4,0,6.1,2.7,6.1,6.1v0l0,0c0,3.4-2.7,6.1-6.1,6.1
			h0l0,0c-3.4,0-6.1-2.7-6.1-6.1v0l0,0C249.7,269.8,252.4,267.1,255.7,267.1L255.7,267.1z M290.6,267.1L290.6,267.1
			c3.4,0,6.1,2.7,6.1,6.1v0l0,0c0,3.4-2.7,6.1-6.1,6.1l0,0l0,0c-3.4,0-6.1-2.7-6.1-6.1v0l0,0C284.5,269.8,287.2,267.1,290.6,267.1
			L290.6,267.1z M308,267.1L308,267.1c3.4,0,6.1,2.7,6.1,6.1v0l0,0c0,3.4-2.7,6.1-6.1,6.1l0,0l0,0c-3.4,0-6.1-2.7-6.1-6.1v0l0,0
			C301.9,269.8,304.6,267.1,308,267.1L308,267.1z M325.4,267.1L325.4,267.1c3.4,0,6.1,2.7,6.1,6.1v0l0,0c0,3.4-2.7,6.1-6.1,6.1h0
			l0,0c-3.4,0-6.1-2.7-6.1-6.1v0l0,0C319.3,269.8,322,267.1,325.4,267.1L325.4,267.1z M360.2,267.1L360.2,267.1
			c3.4,0,6.1,2.7,6.1,6.1v0l0,0c0,3.4-2.7,6.1-6.1,6.1l0,0l0,0c-3.4,0-6.1-2.7-6.1-6.1v0l0,0C354.1,269.8,356.8,267.1,360.2,267.1
			L360.2,267.1z M412.4,267.1L412.4,267.1c3.4,0,6.1,2.7,6.1,6.1v0l0,0c0,3.4-2.7,6.1-6.1,6.1l0,0l0,0c-3.4,0-6.1-2.7-6.1-6.1v0l0,0
			C406.3,269.8,409,267.1,412.4,267.1L412.4,267.1z M429.8,267.1L429.8,267.1c3.4,0,6.1,2.7,6.1,6.1v0l0,0c0,3.4-2.7,6.1-6.1,6.1
			l0,0l0,0c-3.4,0-6.1-2.7-6.1-6.1v0l0,0C423.7,269.8,426.4,267.1,429.8,267.1L429.8,267.1z M447.2,267.1L447.2,267.1
			c3.4,0,6.1,2.7,6.1,6.1v0l0,0c0,3.4-2.7,6.1-6.1,6.1l0,0l0,0c-3.4,0-6.1-2.7-6.1-6.1v0l0,0C441.1,269.8,443.8,267.1,447.2,267.1
			L447.2,267.1z M464.6,267.1L464.6,267.1c3.4,0,6.1,2.7,6.1,6.1v0l0,0c0,3.4-2.7,6.1-6.1,6.1l0,0l0,0c-3.4,0-6.1-2.7-6.1-6.1v0l0,0
			C458.5,269.8,461.2,267.1,464.6,267.1L464.6,267.1z M81.7,284.5L81.7,284.5c3.4,0,6.1,2.7,6.1,6.1l0,0l0,0c0,3.4-2.7,6.1-6.1,6.1
			h0l0,0c-3.4,0-6.1-2.7-6.1-6.1l0,0l0,0C75.6,287.2,78.4,284.5,81.7,284.5L81.7,284.5z M116.5,284.5L116.5,284.5
			c3.4,0,6.1,2.7,6.1,6.1l0,0l0,0c0,3.4-2.7,6.1-6.1,6.1h0l0,0c-3.4,0-6.1-2.7-6.1-6.1l0,0l0,0C110.5,287.2,113.2,284.5,116.5,284.5
			L116.5,284.5z M133.9,284.5L133.9,284.5c3.4,0,6.1,2.7,6.1,6.1l0,0l0,0c0,3.4-2.7,6.1-6.1,6.1c0,0,0,0,0,0l0,0
			c-3.4,0-6.1-2.7-6.1-6.1l0,0l0,0C127.9,287.2,130.6,284.5,133.9,284.5C133.9,284.5,133.9,284.5,133.9,284.5z M168.7,284.5
			L168.7,284.5c3.4,0,6.1,2.7,6.1,6.1l0,0l0,0c0,3.4-2.7,6.1-6.1,6.1l0,0l0,0c-3.4,0-6.1-2.7-6.1-6.1l0,0l0,0
			C162.7,287.2,165.4,284.5,168.7,284.5C168.7,284.5,168.7,284.5,168.7,284.5z M186.1,284.5L186.1,284.5c3.4,0,6.1,2.7,6.1,6.1l0,0
			l0,0c0,3.4-2.7,6.1-6.1,6.1h0l0,0c-3.4,0-6.1-2.7-6.1-6.1l0,0l0,0C180.1,287.2,182.8,284.5,186.1,284.5
			C186.1,284.5,186.1,284.5,186.1,284.5z M220.9,284.5L220.9,284.5c3.4,0,6.1,2.7,6.1,6.1v0l0,0c0,3.4-2.7,6.1-6.1,6.1h0l0,0
			c-3.4,0-6.1-2.7-6.1-6.1l0,0l0,0C214.9,287.2,217.6,284.5,220.9,284.5L220.9,284.5z M255.7,284.5L255.7,284.5
			c3.4,0,6.1,2.7,6.1,6.1v0l0,0c0,3.4-2.7,6.1-6.1,6.1h0l0,0c-3.4,0-6.1-2.7-6.1-6.1l0,0l0,0C249.7,287.2,252.4,284.5,255.7,284.5
			L255.7,284.5z M290.6,284.5L290.6,284.5c3.4,0,6.1,2.7,6.1,6.1v0l0,0c0,3.4-2.7,6.1-6.1,6.1l0,0l0,0c-3.4,0-6.1-2.7-6.1-6.1l0,0
			l0,0C284.5,287.2,287.2,284.5,290.6,284.5L290.6,284.5z M308,284.5L308,284.5c3.4,0,6.1,2.7,6.1,6.1v0l0,0c0,3.4-2.7,6.1-6.1,6.1
			l0,0l0,0c-3.4,0-6.1-2.7-6.1-6.1l0,0l0,0C301.9,287.2,304.6,284.5,308,284.5L308,284.5z M342.8,284.5L342.8,284.5
			c3.4,0,6.1,2.7,6.1,6.1v0l0,0c0,3.4-2.7,6.1-6.1,6.1l0,0l0,0c-3.4,0-6.1-2.7-6.1-6.1l0,0l0,0C336.7,287.2,339.4,284.5,342.8,284.5
			L342.8,284.5z M360.2,284.5L360.2,284.5c3.4,0,6.1,2.7,6.1,6.1v0l0,0c0,3.4-2.7,6.1-6.1,6.1l0,0l0,0c-3.4,0-6.1-2.7-6.1-6.1l0,0
			l0,0C354.1,287.2,356.8,284.5,360.2,284.5L360.2,284.5z M377.6,284.5L377.6,284.5c3.4,0,6.1,2.7,6.1,6.1v0l0,0
			c0,3.4-2.7,6.1-6.1,6.1l0,0l0,0c-3.4,0-6.1-2.7-6.1-6.1l0,0l0,0C371.5,287.2,374.2,284.5,377.6,284.5L377.6,284.5z M412.4,284.5
			L412.4,284.5c3.4,0,6.1,2.7,6.1,6.1v0l0,0c0,3.4-2.7,6.1-6.1,6.1l0,0l0,0c-3.4,0-6.1-2.7-6.1-6.1l0,0l0,0
			C406.3,287.2,409,284.5,412.4,284.5L412.4,284.5z M429.8,284.5L429.8,284.5c3.4,0,6.1,2.7,6.1,6.1v0l0,0c0,3.4-2.7,6.1-6.1,6.1
			l0,0l0,0c-3.4,0-6.1-2.7-6.1-6.1l0,0l0,0C423.7,287.2,426.4,284.5,429.8,284.5L429.8,284.5z M447.2,284.5L447.2,284.5
			c3.4,0,6.1,2.7,6.1,6.1v0l0,0c0,3.4-2.7,6.1-6.1,6.1l0,0l0,0c-3.4,0-6.1-2.7-6.1-6.1l0,0l0,0C441.1,287.2,443.8,284.5,447.2,284.5
			L447.2,284.5z M482,284.5L482,284.5c3.4,0,6.1,2.7,6.1,6.1v0l0,0c0,3.4-2.7,6.1-6.1,6.1l0,0l0,0c-3.4,0-6.1-2.7-6.1-6.1l0,0l0,0
			C475.9,287.2,478.6,284.5,482,284.5L482,284.5z M81.7,301.9L81.7,301.9c3.4,0,6.1,2.7,6.1,6.1l0,0l0,0c0,3.4-2.7,6.1-6.1,6.1h0
			l0,0c-3.4,0-6.1-2.7-6.1-6.1l0,0l0,0C75.6,304.6,78.4,301.9,81.7,301.9L81.7,301.9z M116.5,301.9L116.5,301.9
			c3.4,0,6.1,2.7,6.1,6.1l0,0l0,0c0,3.4-2.7,6.1-6.1,6.1h0l0,0c-3.4,0-6.1-2.7-6.1-6.1l0,0l0,0C110.5,304.6,113.2,301.9,116.5,301.9
			L116.5,301.9z M151.3,301.9L151.3,301.9c3.4,0,6.1,2.7,6.1,6.1l0,0l0,0c0,3.4-2.7,6.1-6.1,6.1c0,0,0,0,0,0l0,0
			c-3.4,0-6.1-2.7-6.1-6.1l0,0l0,0C145.3,304.6,148,301.9,151.3,301.9L151.3,301.9z M186.1,301.9L186.1,301.9c3.4,0,6.1,2.7,6.1,6.1
			l0,0l0,0c0,3.4-2.7,6.1-6.1,6.1h0l0,0c-3.4,0-6.1-2.7-6.1-6.1l0,0l0,0C180.1,304.6,182.8,301.9,186.1,301.9
			C186.1,301.9,186.1,301.9,186.1,301.9z M220.9,301.9L220.9,301.9c3.4,0,6.1,2.7,6.1,6.1v0l0,0c0,3.4-2.7,6.1-6.1,6.1h0l0,0
			c-3.4,0-6.1-2.7-6.1-6.1l0,0l0,0C214.9,304.6,217.6,301.9,220.9,301.9L220.9,301.9z M238.3,301.9L238.3,301.9
			c3.4,0,6.1,2.7,6.1,6.1v0l0,0c0,3.4-2.7,6.1-6.1,6.1h0l0,0c-3.4,0-6.1-2.7-6.1-6.1l0,0l0,0C232.3,304.6,235,301.9,238.3,301.9
			L238.3,301.9z M255.7,301.9L255.7,301.9c3.4,0,6.1,2.7,6.1,6.1v0l0,0c0,3.4-2.7,6.1-6.1,6.1h0l0,0c-3.4,0-6.1-2.7-6.1-6.1l0,0l0,0
			C249.7,304.6,252.4,301.9,255.7,301.9L255.7,301.9z M273.1,301.9L273.1,301.9c3.4,0,6.1,2.7,6.1,6.1v0l0,0c0,3.4-2.7,6.1-6.1,6.1
			h0l0,0c-3.4,0-6.1-2.7-6.1-6.1l0,0l0,0C267.1,304.6,269.8,301.9,273.1,301.9L273.1,301.9z M290.6,301.9L290.6,301.9
			c3.4,0,6.1,2.7,6.1,6.1v0l0,0c0,3.4-2.7,6.1-6.1,6.1l0,0l0,0c-3.4,0-6.1-2.7-6.1-6.1l0,0l0,0C284.5,304.6,287.2,301.9,290.6,301.9
			L290.6,301.9z M395,301.9L395,301.9c3.4,0,6.1,2.7,6.1,6.1v0l0,0c0,3.4-2.7,6.1-6.1,6.1l0,0l0,0c-3.4,0-6.1-2.7-6.1-6.1l0,0l0,0
			C388.9,304.6,391.6,301.9,395,301.9L395,301.9z M447.2,301.9L447.2,301.9c3.4,0,6.1,2.7,6.1,6.1v0l0,0c0,3.4-2.7,6.1-6.1,6.1l0,0
			l0,0c-3.4,0-6.1-2.7-6.1-6.1l0,0l0,0C441.1,304.6,443.8,301.9,447.2,301.9L447.2,301.9z M81.7,319.3L81.7,319.3
			c3.4,0,6.1,2.7,6.1,6.1l0,0l0,0c0,3.4-2.7,6.1-6.1,6.1h0l0,0c-3.4,0-6.1-2.7-6.1-6.1l0,0l0,0C75.6,322,78.4,319.3,81.7,319.3
			L81.7,319.3z M99.1,319.3L99.1,319.3c3.4,0,6.1,2.7,6.1,6.1l0,0l0,0c0,3.4-2.7,6.1-6.1,6.1l0,0l0,0c-3.4,0-6.1-2.7-6.1-6.1l0,0
			l0,0C93,322,95.8,319.3,99.1,319.3L99.1,319.3z M151.3,319.3L151.3,319.3c3.4,0,6.1,2.7,6.1,6.1l0,0l0,0c0,3.4-2.7,6.1-6.1,6.1
			c0,0,0,0,0,0l0,0c-3.4,0-6.1-2.7-6.1-6.1l0,0l0,0C145.3,322,148,319.3,151.3,319.3L151.3,319.3z M168.7,319.3L168.7,319.3
			c3.4,0,6.1,2.7,6.1,6.1l0,0l0,0c0,3.4-2.7,6.1-6.1,6.1l0,0l0,0c-3.4,0-6.1-2.7-6.1-6.1l0,0l0,0C162.7,322,165.4,319.3,168.7,319.3
			C168.7,319.3,168.7,319.3,168.7,319.3z M220.9,319.3L220.9,319.3c3.4,0,6.1,2.7,6.1,6.1l0,0l0,0c0,3.4-2.7,6.1-6.1,6.1h0l0,0
			c-3.4,0-6.1-2.7-6.1-6.1v0l0,0C214.9,322,217.6,319.3,220.9,319.3L220.9,319.3z M273.1,319.3L273.1,319.3c3.4,0,6.1,2.7,6.1,6.1
			l0,0l0,0c0,3.4-2.7,6.1-6.1,6.1h0l0,0c-3.4,0-6.1-2.7-6.1-6.1v0l0,0C267.1,322,269.8,319.3,273.1,319.3L273.1,319.3z M290.6,319.3
			L290.6,319.3c3.4,0,6.1,2.7,6.1,6.1l0,0l0,0c0,3.4-2.7,6.1-6.1,6.1l0,0l0,0c-3.4,0-6.1-2.7-6.1-6.1v0l0,0
			C284.5,322,287.2,319.3,290.6,319.3L290.6,319.3z M308,319.3L308,319.3c3.4,0,6.1,2.7,6.1,6.1l0,0l0,0c0,3.4-2.7,6.1-6.1,6.1l0,0
			l0,0c-3.4,0-6.1-2.7-6.1-6.1v0l0,0C301.9,322,304.6,319.3,308,319.3L308,319.3z M325.4,319.3L325.4,319.3c3.4,0,6.1,2.7,6.1,6.1
			l0,0l0,0c0,3.4-2.7,6.1-6.1,6.1h0l0,0c-3.4,0-6.1-2.7-6.1-6.1v0l0,0C319.3,322,322,319.3,325.4,319.3L325.4,319.3z M360.2,319.3
			L360.2,319.3c3.4,0,6.1,2.7,6.1,6.1l0,0l0,0c0,3.4-2.7,6.1-6.1,6.1l0,0l0,0c-3.4,0-6.1-2.7-6.1-6.1v0l0,0
			C354.1,322,356.8,319.3,360.2,319.3L360.2,319.3z M395,319.3L395,319.3c3.4,0,6.1,2.7,6.1,6.1l0,0l0,0c0,3.4-2.7,6.1-6.1,6.1l0,0
			l0,0c-3.4,0-6.1-2.7-6.1-6.1v0l0,0C388.9,322,391.6,319.3,395,319.3L395,319.3z M429.8,319.3L429.8,319.3c3.4,0,6.1,2.7,6.1,6.1
			l0,0l0,0c0,3.4-2.7,6.1-6.1,6.1l0,0l0,0c-3.4,0-6.1-2.7-6.1-6.1v0l0,0C423.7,322,426.4,319.3,429.8,319.3L429.8,319.3z
			 M464.6,319.3L464.6,319.3c3.4,0,6.1,2.7,6.1,6.1l0,0l0,0c0,3.4-2.7,6.1-6.1,6.1l0,0l0,0c-3.4,0-6.1-2.7-6.1-6.1v0l0,0
			C458.5,322,461.2,319.3,464.6,319.3L464.6,319.3z M81.7,336.7L81.7,336.7c3.4,0,6.1,2.7,6.1,6.1l0,0l0,0c0,3.4-2.7,6.1-6.1,6.1h0
			l0,0c-3.4,0-6.1-2.7-6.1-6.1l0,0l0,0C75.6,339.4,78.4,336.7,81.7,336.7L81.7,336.7z M133.9,336.7L133.9,336.7
			c3.4,0,6.1,2.7,6.1,6.1l0,0l0,0c0,3.4-2.7,6.1-6.1,6.1c0,0,0,0,0,0l0,0c-3.4,0-6.1-2.7-6.1-6.1l0,0l0,0
			C127.9,339.4,130.6,336.7,133.9,336.7C133.9,336.7,133.9,336.7,133.9,336.7z M151.3,336.7L151.3,336.7c3.4,0,6.1,2.7,6.1,6.1l0,0
			l0,0c0,3.4-2.7,6.1-6.1,6.1c0,0,0,0,0,0l0,0c-3.4,0-6.1-2.7-6.1-6.1l0,0l0,0C145.3,339.4,148,336.7,151.3,336.7L151.3,336.7z
			 M203.5,336.7L203.5,336.7c3.4,0,6.1,2.7,6.1,6.1l0,0l0,0c0,3.4-2.7,6.1-6.1,6.1h0l0,0c-3.4,0-6.1-2.7-6.1-6.1l0,0l0,0
			C197.5,339.4,200.2,336.7,203.5,336.7L203.5,336.7z M220.9,336.7L220.9,336.7c3.4,0,6.1,2.7,6.1,6.1l0,0l0,0
			c0,3.4-2.7,6.1-6.1,6.1h0l0,0c-3.4,0-6.1-2.7-6.1-6.1l0,0l0,0C214.9,339.4,217.6,336.7,220.9,336.7L220.9,336.7z M255.7,336.7
			L255.7,336.7c3.4,0,6.1,2.7,6.1,6.1l0,0l0,0c0,3.4-2.7,6.1-6.1,6.1h0l0,0c-3.4,0-6.1-2.7-6.1-6.1l0,0l0,0
			C249.7,339.4,252.4,336.7,255.7,336.7L255.7,336.7z M429.8,336.7L429.8,336.7c3.4,0,6.1,2.7,6.1,6.1l0,0l0,0
			c0,3.4-2.7,6.1-6.1,6.1l0,0l0,0c-3.4,0-6.1-2.7-6.1-6.1l0,0l0,0C423.7,339.4,426.4,336.7,429.8,336.7L429.8,336.7z M464.6,336.7
			L464.6,336.7c3.4,0,6.1,2.7,6.1,6.1l0,0l0,0c0,3.4-2.7,6.1-6.1,6.1l0,0l0,0c-3.4,0-6.1-2.7-6.1-6.1l0,0l0,0
			C458.5,339.4,461.2,336.7,464.6,336.7L464.6,336.7z M482,336.7L482,336.7c3.4,0,6.1,2.7,6.1,6.1l0,0l0,0c0,3.4-2.7,6.1-6.1,6.1
			l0,0l0,0c-3.4,0-6.1-2.7-6.1-6.1l0,0l0,0C475.9,339.4,478.6,336.7,482,336.7L482,336.7z M220.9,354.1L220.9,354.1
			c3.4,0,6.1,2.7,6.1,6.1l0,0l0,0c0,3.4-2.7,6.1-6.1,6.1h0l0,0c-3.4,0-6.1-2.7-6.1-6.1l0,0l0,0C214.9,356.8,217.6,354.1,220.9,354.1
			L220.9,354.1z M238.3,354.1L238.3,354.1c3.4,0,6.1,2.7,6.1,6.1l0,0l0,0c0,3.4-2.7,6.1-6.1,6.1h0l0,0c-3.4,0-6.1-2.7-6.1-6.1l0,0
			l0,0C232.3,356.8,235,354.1,238.3,354.1L238.3,354.1z M273.1,354.1L273.1,354.1c3.4,0,6.1,2.7,6.1,6.1l0,0l0,0
			c0,3.4-2.7,6.1-6.1,6.1h0l0,0c-3.4,0-6.1-2.7-6.1-6.1l0,0l0,0C267.1,356.8,269.8,354.1,273.1,354.1L273.1,354.1z M290.6,354.1
			L290.6,354.1c3.4,0,6.1,2.7,6.1,6.1l0,0l0,0c0,3.4-2.7,6.1-6.1,6.1l0,0l0,0c-3.4,0-6.1-2.7-6.1-6.1l0,0l0,0
			C284.5,356.8,287.2,354.1,290.6,354.1L290.6,354.1z M308,354.1L308,354.1c3.4,0,6.1,2.7,6.1,6.1l0,0l0,0c0,3.4-2.7,6.1-6.1,6.1
			l0,0l0,0c-3.4,0-6.1-2.7-6.1-6.1l0,0l0,0C301.9,356.8,304.6,354.1,308,354.1L308,354.1z M325.4,354.1L325.4,354.1
			c3.4,0,6.1,2.7,6.1,6.1l0,0l0,0c0,3.4-2.7,6.1-6.1,6.1h0l0,0c-3.4,0-6.1-2.7-6.1-6.1l0,0l0,0C319.3,356.8,322,354.1,325.4,354.1
			L325.4,354.1z M429.8,354.1L429.8,354.1c3.4,0,6.1,2.7,6.1,6.1l0,0l0,0c0,3.4-2.7,6.1-6.1,6.1l0,0l0,0c-3.4,0-6.1-2.7-6.1-6.1l0,0
			l0,0C423.7,356.8,426.4,354.1,429.8,354.1L429.8,354.1z M464.6,354.1L464.6,354.1c3.4,0,6.1,2.7,6.1,6.1l0,0l0,0
			c0,3.4-2.7,6.1-6.1,6.1l0,0l0,0c-3.4,0-6.1-2.7-6.1-6.1l0,0l0,0C458.5,356.8,461.2,354.1,464.6,354.1L464.6,354.1z M482,354.1
			L482,354.1c3.4,0,6.1,2.7,6.1,6.1l0,0l0,0c0,3.4-2.7,6.1-6.1,6.1l0,0l0,0c-3.4,0-6.1-2.7-6.1-6.1l0,0l0,0
			C475.9,356.8,478.6,354.1,482,354.1L482,354.1z M220.9,371.5L220.9,371.5c3.4,0,6.1,2.7,6.1,6.1l0,0l0,0c0,3.4-2.7,6.1-6.1,6.1h0
			l0,0c-3.4,0-6.1-2.7-6.1-6.1l0,0l0,0C214.9,374.2,217.6,371.5,220.9,371.5L220.9,371.5z M238.3,371.5L238.3,371.5
			c3.4,0,6.1,2.7,6.1,6.1l0,0l0,0c0,3.4-2.7,6.1-6.1,6.1h0l0,0c-3.4,0-6.1-2.7-6.1-6.1l0,0l0,0C232.3,374.2,235,371.5,238.3,371.5
			L238.3,371.5z M290.6,371.5L290.6,371.5c3.4,0,6.1,2.7,6.1,6.1l0,0l0,0c0,3.4-2.7,6.1-6.1,6.1l0,0l0,0c-3.4,0-6.1-2.7-6.1-6.1l0,0
			l0,0C284.5,374.2,287.2,371.5,290.6,371.5L290.6,371.5z M308,371.5L308,371.5c3.4,0,6.1,2.7,6.1,6.1l0,0l0,0
			c0,3.4-2.7,6.1-6.1,6.1l0,0l0,0c-3.4,0-6.1-2.7-6.1-6.1l0,0l0,0C301.9,374.2,304.6,371.5,308,371.5L308,371.5z M325.4,371.5
			L325.4,371.5c3.4,0,6.1,2.7,6.1,6.1l0,0l0,0c0,3.4-2.7,6.1-6.1,6.1h0l0,0c-3.4,0-6.1-2.7-6.1-6.1l0,0l0,0
			C319.3,374.2,322,371.5,325.4,371.5L325.4,371.5z M447.2,371.5L447.2,371.5c3.4,0,6.1,2.7,6.1,6.1l0,0l0,0c0,3.4-2.7,6.1-6.1,6.1
			l0,0l0,0c-3.4,0-6.1-2.7-6.1-6.1l0,0l0,0C441.1,374.2,443.8,371.5,447.2,371.5L447.2,371.5z M464.6,371.5L464.6,371.5
			c3.4,0,6.1,2.7,6.1,6.1l0,0l0,0c0,3.4-2.7,6.1-6.1,6.1l0,0l0,0c-3.4,0-6.1-2.7-6.1-6.1l0,0l0,0
			C458.5,374.2,461.2,371.5,464.6,371.5L464.6,371.5z M238.3,388.9L238.3,388.9c3.4,0,6.1,2.7,6.1,6.1l0,0l0,0
			c0,3.4-2.7,6.1-6.1,6.1h0l0,0c-3.4,0-6.1-2.7-6.1-6.1l0,0l0,0C232.3,391.6,235,388.9,238.3,388.9L238.3,388.9z M290.6,388.9
			L290.6,388.9c3.4,0,6.1,2.7,6.1,6.1l0,0l0,0c0,3.4-2.7,6.1-6.1,6.1l0,0l0,0c-3.4,0-6.1-2.7-6.1-6.1l0,0l0,0
			C284.5,391.6,287.2,388.9,290.6,388.9L290.6,388.9z M429.8,388.9L429.8,388.9c3.4,0,6.1,2.7,6.1,6.1l0,0l0,0
			c0,3.4-2.7,6.1-6.1,6.1l0,0l0,0c-3.4,0-6.1-2.7-6.1-6.1l0,0l0,0C423.7,391.6,426.4,388.9,429.8,388.9L429.8,388.9z M447.2,388.9
			L447.2,388.9c3.4,0,6.1,2.7,6.1,6.1l0,0l0,0c0,3.4-2.7,6.1-6.1,6.1l0,0l0,0c-3.4,0-6.1-2.7-6.1-6.1l0,0l0,0
			C441.1,391.6,443.8,388.9,447.2,388.9L447.2,388.9z M464.6,388.9L464.6,388.9c3.4,0,6.1,2.7,6.1,6.1l0,0l0,0
			c0,3.4-2.7,6.1-6.1,6.1l0,0l0,0c-3.4,0-6.1-2.7-6.1-6.1l0,0l0,0C458.5,391.6,461.2,388.9,464.6,388.9L464.6,388.9z M482,388.9
			L482,388.9c3.4,0,6.1,2.7,6.1,6.1l0,0l0,0c0,3.4-2.7,6.1-6.1,6.1l0,0l0,0c-3.4,0-6.1-2.7-6.1-6.1l0,0l0,0
			C475.9,391.6,478.6,388.9,482,388.9L482,388.9z M203.5,406.3L203.5,406.3c3.4,0,6.1,2.7,6.1,6.1l0,0l0,0c0,3.4-2.7,6.1-6.1,6.1h0
			l0,0c-3.4,0-6.1-2.7-6.1-6.1l0,0l0,0C197.5,409,200.2,406.3,203.5,406.3L203.5,406.3z M238.3,406.3L238.3,406.3
			c3.4,0,6.1,2.7,6.1,6.1l0,0l0,0c0,3.4-2.7,6.1-6.1,6.1h0l0,0c-3.4,0-6.1-2.7-6.1-6.1l0,0l0,0C232.3,409,235,406.3,238.3,406.3
			L238.3,406.3z M255.7,406.3L255.7,406.3c3.4,0,6.1,2.7,6.1,6.1l0,0l0,0c0,3.4-2.7,6.1-6.1,6.1h0l0,0c-3.4,0-6.1-2.7-6.1-6.1l0,0
			l0,0C249.7,409,252.4,406.3,255.7,406.3L255.7,406.3z M273.1,406.3L273.1,406.3c3.4,0,6.1,2.7,6.1,6.1l0,0l0,0
			c0,3.4-2.7,6.1-6.1,6.1h0l0,0c-3.4,0-6.1-2.7-6.1-6.1l0,0l0,0C267.1,409,269.8,406.3,273.1,406.3L273.1,406.3z M308,406.3
			L308,406.3c3.4,0,6.1,2.7,6.1,6.1l0,0l0,0c0,3.4-2.7,6.1-6.1,6.1l0,0l0,0c-3.4,0-6.1-2.7-6.1-6.1l0,0l0,0
			C301.9,409,304.6,406.3,308,406.3L308,406.3z M464.6,406.3L464.6,406.3c3.4,0,6.1,2.7,6.1,6.1l0,0l0,0c0,3.4-2.7,6.1-6.1,6.1l0,0
			l0,0c-3.4,0-6.1-2.7-6.1-6.1l0,0l0,0C458.5,409,461.2,406.3,464.6,406.3L464.6,406.3z M482,406.3L482,406.3c3.4,0,6.1,2.7,6.1,6.1
			l0,0l0,0c0,3.4-2.7,6.1-6.1,6.1l0,0l0,0c-3.4,0-6.1-2.7-6.1-6.1l0,0l0,0C475.9,409,478.6,406.3,482,406.3L482,406.3z M203.5,423.7
			L203.5,423.7c3.4,0,6.1,2.7,6.1,6.1l0,0l0,0c0,3.4-2.7,6.1-6.1,6.1h0l0,0c-3.4,0-6.1-2.7-6.1-6.1l0,0l0,0
			C197.5,426.4,200.2,423.7,203.5,423.7L203.5,423.7z M238.3,423.7L238.3,423.7c3.4,0,6.1,2.7,6.1,6.1l0,0l0,0
			c0,3.4-2.7,6.1-6.1,6.1h0l0,0c-3.4,0-6.1-2.7-6.1-6.1l0,0l0,0C232.3,426.4,235,423.7,238.3,423.7L238.3,423.7z M273.1,423.7
			L273.1,423.7c3.4,0,6.1,2.7,6.1,6.1l0,0l0,0c0,3.4-2.7,6.1-6.1,6.1h0l0,0c-3.4,0-6.1-2.7-6.1-6.1l0,0l0,0
			C267.1,426.4,269.8,423.7,273.1,423.7L273.1,423.7z M325.4,423.7L325.4,423.7c3.4,0,6.1,2.7,6.1,6.1l0,0l0,0
			c0,3.4-2.7,6.1-6.1,6.1h0l0,0c-3.4,0-6.1-2.7-6.1-6.1l0,0l0,0C319.3,426.4,322,423.7,325.4,423.7L325.4,423.7z M395,423.7
			L395,423.7c3.4,0,6.1,2.7,6.1,6.1l0,0l0,0c0,3.4-2.7,6.1-6.1,6.1l0,0l0,0c-3.4,0-6.1-2.7-6.1-6.1l0,0l0,0
			C388.9,426.4,391.6,423.7,395,423.7L395,423.7z M412.4,423.7L412.4,423.7c3.4,0,6.1,2.7,6.1,6.1l0,0l0,0c0,3.4-2.7,6.1-6.1,6.1
			l0,0l0,0c-3.4,0-6.1-2.7-6.1-6.1l0,0l0,0C406.3,426.4,409,423.7,412.4,423.7L412.4,423.7z M447.2,423.7L447.2,423.7
			c3.4,0,6.1,2.7,6.1,6.1l0,0l0,0c0,3.4-2.7,6.1-6.1,6.1l0,0l0,0c-3.4,0-6.1-2.7-6.1-6.1l0,0l0,0
			C441.1,426.4,443.8,423.7,447.2,423.7L447.2,423.7z M203.5,441.1L203.5,441.1c3.4,0,6.1,2.7,6.1,6.1l0,0l0,0
			c0,3.4-2.7,6.1-6.1,6.1h0l0,0c-3.4,0-6.1-2.7-6.1-6.1l0,0l0,0C197.5,443.8,200.2,441.1,203.5,441.1L203.5,441.1z M220.9,441.1
			L220.9,441.1c3.4,0,6.1,2.7,6.1,6.1l0,0l0,0c0,3.4-2.7,6.1-6.1,6.1h0l0,0c-3.4,0-6.1-2.7-6.1-6.1l0,0l0,0
			C214.9,443.8,217.6,441.1,220.9,441.1L220.9,441.1z M238.3,441.1L238.3,441.1c3.4,0,6.1,2.7,6.1,6.1l0,0l0,0
			c0,3.4-2.7,6.1-6.1,6.1h0l0,0c-3.4,0-6.1-2.7-6.1-6.1l0,0l0,0C232.3,443.8,235,441.1,238.3,441.1L238.3,441.1z M255.7,441.1
			L255.7,441.1c3.4,0,6.1,2.7,6.1,6.1l0,0l0,0c0,3.4-2.7,6.1-6.1,6.1h0l0,0c-3.4,0-6.1-2.7-6.1-6.1l0,0l0,0
			C249.7,443.8,252.4,441.1,255.7,441.1L255.7,441.1z M273.1,441.1L273.1,441.1c3.4,0,6.1,2.7,6.1,6.1l0,0l0,0
			c0,3.4-2.7,6.1-6.1,6.1h0l0,0c-3.4,0-6.1-2.7-6.1-6.1l0,0l0,0C267.1,443.8,269.8,441.1,273.1,441.1L273.1,441.1z M325.4,441.1
			L325.4,441.1c3.4,0,6.1,2.7,6.1,6.1l0,0l0,0c0,3.4-2.7,6.1-6.1,6.1h0l0,0c-3.4,0-6.1-2.7-6.1-6.1l0,0l0,0
			C319.3,443.8,322,441.1,325.4,441.1L325.4,441.1z M342.8,441.1L342.8,441.1c3.4,0,6.1,2.7,6.1,6.1l0,0l0,0c0,3.4-2.7,6.1-6.1,6.1
			l0,0l0,0c-3.4,0-6.1-2.7-6.1-6.1l0,0l0,0C336.7,443.8,339.4,441.1,342.8,441.1L342.8,441.1z M360.2,441.1L360.2,441.1
			c3.4,0,6.1,2.7,6.1,6.1l0,0l0,0c0,3.4-2.7,6.1-6.1,6.1l0,0l0,0c-3.4,0-6.1-2.7-6.1-6.1l0,0l0,0
			C354.1,443.8,356.8,441.1,360.2,441.1L360.2,441.1z M377.6,441.1L377.6,441.1c3.4,0,6.1,2.7,6.1,6.1l0,0l0,0
			c0,3.4-2.7,6.1-6.1,6.1l0,0l0,0c-3.4,0-6.1-2.7-6.1-6.1l0,0l0,0C371.5,443.8,374.2,441.1,377.6,441.1L377.6,441.1z M412.4,441.1
			L412.4,441.1c3.4,0,6.1,2.7,6.1,6.1l0,0l0,0c0,3.4-2.7,6.1-6.1,6.1l0,0l0,0c-3.4,0-6.1-2.7-6.1-6.1l0,0l0,0
			C406.3,443.8,409,441.1,412.4,441.1L412.4,441.1z M429.8,441.1L429.8,441.1c3.4,0,6.1,2.7,6.1,6.1l0,0l0,0c0,3.4-2.7,6.1-6.1,6.1
			l0,0l0,0c-3.4,0-6.1-2.7-6.1-6.1l0,0l0,0C423.7,443.8,426.4,441.1,429.8,441.1L429.8,441.1z M464.6,441.1L464.6,441.1
			c3.4,0,6.1,2.7,6.1,6.1l0,0l0,0c0,3.4-2.7,6.1-6.1,6.1l0,0l0,0c-3.4,0-6.1-2.7-6.1-6.1l0,0l0,0
			C458.5,443.8,461.2,441.1,464.6,441.1L464.6,441.1z M238.3,458.5L238.3,458.5c3.4,0,6.1,2.7,6.1,6.1l0,0l0,0
			c0,3.4-2.7,6.1-6.1,6.1h0l0,0c-3.4,0-6.1-2.7-6.1-6.1l0,0l0,0C232.3,461.2,235,458.5,238.3,458.5L238.3,458.5z M273.1,458.5
			L273.1,458.5c3.4,0,6.1,2.7,6.1,6.1l0,0l0,0c0,3.4-2.7,6.1-6.1,6.1h0l0,0c-3.4,0-6.1-2.7-6.1-6.1l0,0l0,0
			C267.1,461.2,269.8,458.5,273.1,458.5L273.1,458.5z M290.6,458.5L290.6,458.5c3.4,0,6.1,2.7,6.1,6.1l0,0l0,0
			c0,3.4-2.7,6.1-6.1,6.1l0,0l0,0c-3.4,0-6.1-2.7-6.1-6.1l0,0l0,0C284.5,461.2,287.2,458.5,290.6,458.5L290.6,458.5z M308,458.5
			L308,458.5c3.4,0,6.1,2.7,6.1,6.1l0,0l0,0c0,3.4-2.7,6.1-6.1,6.1l0,0l0,0c-3.4,0-6.1-2.7-6.1-6.1l0,0l0,0
			C301.9,461.2,304.6,458.5,308,458.5L308,458.5z M360.2,458.5L360.2,458.5c3.4,0,6.1,2.7,6.1,6.1l0,0l0,0c0,3.4-2.7,6.1-6.1,6.1
			l0,0l0,0c-3.4,0-6.1-2.7-6.1-6.1l0,0l0,0C354.1,461.2,356.8,458.5,360.2,458.5L360.2,458.5z M429.8,458.5L429.8,458.5
			c3.4,0,6.1,2.7,6.1,6.1l0,0l0,0c0,3.4-2.7,6.1-6.1,6.1l0,0l0,0c-3.4,0-6.1-2.7-6.1-6.1l0,0l0,0
			C423.7,461.2,426.4,458.5,429.8,458.5L429.8,458.5z M447.2,458.5L447.2,458.5c3.4,0,6.1,2.7,6.1,6.1l0,0l0,0
			c0,3.4-2.7,6.1-6.1,6.1l0,0l0,0c-3.4,0-6.1-2.7-6.1-6.1l0,0l0,0C441.1,461.2,443.8,458.5,447.2,458.5L447.2,458.5z M464.6,458.5
			L464.6,458.5c3.4,0,6.1,2.7,6.1,6.1l0,0l0,0c0,3.4-2.7,6.1-6.1,6.1l0,0l0,0c-3.4,0-6.1-2.7-6.1-6.1l0,0l0,0
			C458.5,461.2,461.2,458.5,464.6,458.5L464.6,458.5z M255.7,475.9L255.7,475.9c3.4,0,6.1,2.7,6.1,6.1l0,0l0,0
			c0,3.4-2.7,6.1-6.1,6.1h0l0,0c-3.4,0-6.1-2.7-6.1-6.1l0,0l0,0C249.7,478.6,252.4,475.9,255.7,475.9L255.7,475.9z M290.6,475.9
			L290.6,475.9c3.4,0,6.1,2.7,6.1,6.1l0,0l0,0c0,3.4-2.7,6.1-6.1,6.1l0,0l0,0c-3.4,0-6.1-2.7-6.1-6.1l0,0l0,0
			C284.5,478.6,287.2,475.9,290.6,475.9L290.6,475.9z M308,475.9L308,475.9c3.4,0,6.1,2.7,6.1,6.1l0,0l0,0c0,3.4-2.7,6.1-6.1,6.1
			l0,0l0,0c-3.4,0-6.1-2.7-6.1-6.1l0,0l0,0C301.9,478.6,304.6,475.9,308,475.9L308,475.9z M325.4,475.9L325.4,475.9
			c3.4,0,6.1,2.7,6.1,6.1l0,0l0,0c0,3.4-2.7,6.1-6.1,6.1h0l0,0c-3.4,0-6.1-2.7-6.1-6.1l0,0l0,0C319.3,478.6,322,475.9,325.4,475.9
			L325.4,475.9z M360.2,475.9L360.2,475.9c3.4,0,6.1,2.7,6.1,6.1l0,0l0,0c0,3.4-2.7,6.1-6.1,6.1l0,0l0,0c-3.4,0-6.1-2.7-6.1-6.1l0,0
			l0,0C354.1,478.6,356.8,475.9,360.2,475.9L360.2,475.9z M395,475.9L395,475.9c3.4,0,6.1,2.7,6.1,6.1l0,0l0,0
			c0,3.4-2.7,6.1-6.1,6.1l0,0l0,0c-3.4,0-6.1-2.7-6.1-6.1l0,0l0,0C388.9,478.6,391.6,475.9,395,475.9L395,475.9z M412.4,475.9
			L412.4,475.9c3.4,0,6.1,2.7,6.1,6.1l0,0l0,0c0,3.4-2.7,6.1-6.1,6.1l0,0l0,0c-3.4,0-6.1-2.7-6.1-6.1l0,0l0,0
			C406.3,478.6,409,475.9,412.4,475.9L412.4,475.9z M447.2,475.9L447.2,475.9c3.4,0,6.1,2.7,6.1,6.1l0,0l0,0c0,3.4-2.7,6.1-6.1,6.1
			l0,0l0,0c-3.4,0-6.1-2.7-6.1-6.1l0,0l0,0C441.1,478.6,443.8,475.9,447.2,475.9L447.2,475.9z M464.6,475.9L464.6,475.9
			c3.4,0,6.1,2.7,6.1,6.1l0,0l0,0c0,3.4-2.7,6.1-6.1,6.1l0,0l0,0c-3.4,0-6.1-2.7-6.1-6.1l0,0l0,0
			C458.5,478.6,461.2,475.9,464.6,475.9L464.6,475.9z"/>
		<g id="qr_squares_00000000931654007966415060000003732267780065338783_">
			<path class="st2" d="M116.5,38.2L116.5,38.2c43.2,0,78.3,35.1,78.3,78.3l0,0c0,43.2-35.1,78.3-78.3,78.3l0,0
				c-43.2,0-78.3-35.1-78.3-78.3l0,0C38.2,73.3,73.3,38.2,116.5,38.2z M116.5,55.6L116.5,55.6c33.6,0,60.9,27.3,60.9,60.9l0,0l0,0
				c0,33.6-27.3,60.9-60.9,60.9l0,0c-33.6,0-60.9-27.3-60.9-60.9l0,0C55.6,82.9,82.9,55.6,116.5,55.6z M116.5,73L116.5,73
				c24,0,43.5,19.5,43.5,43.5l0,0c0,24-19.5,43.5-43.5,43.5l0,0c-24,0-43.5-19.5-43.5-43.5l0,0C73,92.5,92.5,73,116.5,73z
				 M116.5,90.4L116.5,90.4c14.4,0,26.1,11.7,26.1,26.1l0,0c0,14.4-11.7,26.1-26.1,26.1l0,0c-14.4,0-26.1-11.7-26.1-26.1l0,0
				C90.4,102.1,102.1,90.4,116.5,90.4z M429.8,38.2L429.8,38.2c43.2,0,78.3,35.1,78.3,78.3l0,0c0,43.2-35.1,78.3-78.3,78.3l0,0
				c-43.2,0-78.3-35.1-78.3-78.3l0,0C351.5,73.3,386.5,38.2,429.8,38.2z M429.8,55.6L429.8,55.6c33.6,0,60.9,27.3,60.9,60.9l0,0l0,0
				c0,33.6-27.3,60.9-60.9,60.9l0,0c-33.6,0-60.9-27.3-60.9-60.9l0,0C368.9,82.9,396.1,55.6,429.8,55.6z M429.8,73L429.8,73
				c24,0,43.5,19.5,43.5,43.5l0,0c0,24-19.5,43.5-43.5,43.5l0,0c-24,0-43.5-19.5-43.5-43.5l0,0C386.3,92.5,405.7,73,429.8,73z
				 M429.8,90.4L429.8,90.4c14.4,0,26.1,11.7,26.1,26.1l0,0c0,14.4-11.7,26.1-26.1,26.1l0,0c-14.4,0-26.1-11.7-26.1-26.1l0,0
				C403.7,102.1,415.3,90.4,429.8,90.4z M116.5,351.5L116.5,351.5c43.2,0,78.3,35.1,78.3,78.3l0,0c0,43.2-35.1,78.3-78.3,78.3l0,0
				c-43.2,0-78.3-35.1-78.3-78.3l0,0C38.2,386.5,73.3,351.5,116.5,351.5z M116.5,368.9L116.5,368.9c33.6,0,60.9,27.3,60.9,60.9l0,0
				c0,33.6-27.3,60.9-60.9,60.9l0,0l0,0c-33.6,0-60.9-27.3-60.9-60.9l0,0l0,0C55.6,396.1,82.9,368.9,116.5,368.9z M116.5,386.3
				L116.5,386.3c24,0,43.5,19.5,43.5,43.5l0,0c0,24-19.5,43.5-43.5,43.5l0,0c-24,0-43.5-19.5-43.5-43.5l0,0
				C73,405.7,92.5,386.3,116.5,386.3z M116.5,403.7L116.5,403.7c14.4,0,26.1,11.7,26.1,26.1l0,0c0,14.4-11.7,26.1-26.1,26.1l0,0
				c-14.4,0-26.1-11.7-26.1-26.1l0,0C90.4,415.3,102.1,403.7,116.5,403.7z M377.6,351.5L377.6,351.5c14.4,0,26.1,11.7,26.1,26.1l0,0
				c0,14.4-11.7,26.1-26.1,26.1l0,0c-14.4,0-26.1-11.7-26.1-26.1l0,0C351.5,363.1,363.1,351.5,377.6,351.5z M377.6,368.9
				L377.6,368.9c4.8,0,8.7,3.9,8.7,8.7l0,0c0,4.8-3.9,8.7-8.7,8.7l0,0c-4.8,0-8.7-3.9-8.7-8.7l0,0
				C368.9,372.8,372.8,368.9,377.6,368.9z"/>
		</g>
	</g>
</g>
</svg>
