<?xml version="1.0" encoding="utf-8"?>
<!-- Generator: Adobe Illustrator 27.2.0, SVG Export Plug-In . SVG Version: 6.00 Build 0)  -->
<svg version="1.1" id="Слой_1" xmlns="http://www.w3.org/2000/svg" xmlns:xlink="http://www.w3.org/1999/xlink" x="0px" y="0px"
	 viewBox="0 0 960 540" style="enable-background:new 0 0 960 540;" xml:space="preserve">
<style type="text/css">
	.st0{fill-rule:evenodd;clip-rule:evenodd;fill:#FFFFFF;}
</style>
<g>
	<g>
		<g>
			<polygon class="st0" points="508.4,90.6 508.3,90.6 508.3,90.6 			"/>
			<path class="st0" d="M470.7,77.5l-0.8-0.6l-0.8,0.6c-6.2,5.5-9.9,13.4-9.9,21.8c0,13.4,9.4,72.5,9.5,73.1l1.3,8.1l1.3-8.1
				c0-0.6,9.4-59.6,9.4-73.1C480.7,90.9,477,83,470.7,77.5z M470,163.7c-2.3-15.2-8.1-54.1-8.1-64.4c0-7.2,3-14,8.1-19l0,0
				c5.2,5,8.1,11.9,8.1,19.1C478.1,109.4,472.6,146.8,470,163.7z"/>
			<path class="st0" d="M510.2,88.3l-0.5-0.9l-1,0.3c-7.7,2.6-14,8.4-17.1,15.9c-4.8,11.4-17.5,63-19,69l-2,8l4.4-7
				c0.3-0.5,30.9-50,35.9-62.1C514.1,104,513.8,95.5,510.2,88.3z M508.5,110.5c-3.8,9.1-22.7,40.4-31.3,54.6
				c4-16.1,13-51.4,16.8-60.5c2.8-6.4,7.9-11.5,14.4-14l-0.1,0l0.3,0.7C511.1,97.4,511,104.3,508.5,110.5z"/>
			<path class="st0" d="M467.3,172.3c-2.4-9.6-14.4-58.4-19.2-69.6c-3.2-7.6-9.5-13.5-17.3-16.1l-1-0.3l-0.5,0.9
				c-3.6,7.4-3.9,15.9-0.7,23.5c5,11.9,34.8,60.4,36.3,62.8l0,0.1l4.3,7L467.3,172.3z M431,109.7c-2.7-6.5-2.6-13.8,0.1-20.2
				c6.6,2.6,11.8,7.7,14.6,14.2c3.9,9.3,13,45.1,17.1,61.4C454,150.7,434.9,119,431,109.7z"/>
			<path class="st0" d="M541.4,112.6l-0.1-1l-0.9-0.1c-0.6-0.1-1.2-0.1-1.8-0.1c-7.3,0-14.3,2.9-19.5,8.1c-9.1,9-42.7,54.4-43,54.9
				L471,181l6.8-4.9c4.8-3.4,46.8-33.9,55.4-42.4C538.9,128.2,541.9,120.5,541.4,112.6z M531.5,131.9c-6.8,6.7-35.2,27.6-48.4,37.2
				c9.7-13.1,30.9-41.1,37.6-47.8c4.7-4.7,11.1-7.3,17.7-7.3h0.3C538.8,120.7,536.2,127.1,531.5,131.9z"/>
			<path class="st0" d="M464,174.3c-0.3-0.4-33.4-45.3-42.4-54.2c-5.2-5.1-12.1-7.9-19.3-8c-0.6,0-1.2,0-1.8,0.1l-1,0.1l-0.1,1
				c-0.5,7.8,2.4,15.4,8,20.9c9,8.8,54.4,41.6,54.9,41.9l6.7,4.8L464,174.3z M409.2,132.4c-4.7-4.7-7.3-11-7.3-17.6v0
				c6.7-0.1,13.1,2.5,17.9,7.2c6.7,6.6,27.5,34.3,37.1,47.2C443.9,159.6,415.9,139,409.2,132.4z"/>
			<path class="st0" d="M557,145.3c-3.6-1.8-7.5-2.7-11.5-2.6c-3.4,0-6.8,0.7-10,2c-11.1,4.5-55.2,31.2-57.1,32.3l-7.1,4.3l8.4-2
				c12.3-3,53.2-12.9,63.2-17c6.9-2.8,12.3-8.4,14.7-15.4l0.3-1L557,145.3z M542,159.8c-8.3,3.4-39.9,11.3-54.8,14.9
				c13.2-7.8,41.3-24.4,49.4-27.7c2.8-1.2,5.9-1.8,9-1.8c3.2,0,6.3,0.6,9.2,1.8C552.3,152.9,547.7,157.4,542,159.8z"/>
			<path class="st0" d="M461.6,177.1c-0.5-0.3-46.8-28.2-58-32.8c-3.2-1.3-6.6-2-10.1-2c-4,0-8,0.9-11.6,2.7l-0.9,0.5l0.3,1
				c2.4,7.1,7.9,12.9,14.9,15.7c11.3,4.6,63.9,17.2,64.5,17.3l8.1,1.9L461.6,177.1z M397.1,159.8c-5.9-2.4-10.5-7.1-13-13
				c3-1.2,6.1-1.9,9.4-1.9c3.1,0,6.2,0.6,9.1,1.8c8.4,3.5,37,20.3,50.3,28.2C437.8,171.3,405.6,163.3,397.1,159.8z"/>
			<path class="st0" d="M558.6,181.2c-4.6-5.2-11.2-8.2-18.2-8.1c-10.3,0-52.1,6.3-60.3,7.6l-8.5,1.3l8.4,1.3
				c8.3,1.3,50,7.6,60.3,7.6c7,0.1,13.6-2.9,18.2-8.1l0.6-0.8L558.6,181.2z M540.3,188.4c-8.2,0-37.5-4.2-51.7-6.3
				c14.2-2.1,43.5-6.3,51.7-6.3c5.8,0,11.3,2.3,15.4,6.3C551.7,186.1,546.1,188.4,540.3,188.4z"/>
			<path class="st0" d="M460.3,180.7c-0.5-0.1-49.1-7.6-60.2-7.6c-6.9-0.1-13.5,2.9-18.1,8.1l-0.6,0.8l0.6,0.8
				c4.6,5.2,11.2,8.1,18.1,8.1c11,0,57.8-7.2,60.2-7.6l0.1,0l8.3-1.3L460.3,180.7z M400,188.4c-5.7,0-11.2-2.3-15.3-6.3
				c4.1-4,9.6-6.3,15.3-6.3c8.1,0,37.3,4.2,51.4,6.3C437.3,184.2,408.2,188.4,400,188.4z"/>
			<polygon class="st0" points="463.3,198.2 463.2,198.2 463.2,198.3 			"/>
			<path class="st0" d="M460.6,184.5c-0.4,0.1-42.7,10.2-51.9,14c-5.7,2.3-10.2,6.9-12.1,12.8l-0.3,1l0.9,0.5
				c2.9,1.5,6.2,2.2,9.5,2.2c2.8,0,5.6-0.6,8.2-1.7c8.5-3.5,40.4-22.6,46.7-26.4l7.2-4.2L460.6,184.5z M413.9,210.9
				c-2.3,0.9-4.8,1.4-7.2,1.4s-4.9-0.5-7.2-1.4c2-4.6,5.6-8.2,10.2-10c6.4-2.6,29.7-8.5,43.2-11.8
				C442,195.5,420.3,208.2,413.9,210.9z"/>
			<path class="st0" d="M544,211.5c-2-5.9-6.5-10.6-12.2-12.9c-8.9-3.6-47.9-13-52.3-14.1l-8.1-1.9l7.2,4.3c3.9,2.3,38.2,23,47,26.6
				c2.6,1.1,5.5,1.7,8.3,1.7c3.3,0,6.6-0.7,9.5-2.2l0.9-0.5L544,211.5z M533.8,212.6c-2.5,0-5-0.5-7.3-1.5
				c-6.6-2.7-28.4-15.5-39.4-22.1c13.6,3.3,37.2,9.3,43.7,12c4.7,1.9,8.4,5.6,10.3,10.2C538.8,212.1,536.3,212.6,533.8,212.6z"/>
			<path class="st0" d="M462.2,188c-5.2,3.7-31.7,22.5-37.4,28.1c-3.9,3.9-5.8,9.3-5.2,14.8l0.1,0.9l0.9,0.1
				c0.6,0.1,1.2,0.1,1.8,0.1c4.9,0,9.6-1.8,13.1-5.3c6.2-6.1,28.3-36.7,28.5-37l4.5-6.3L462.2,188z M433.7,225
				c-3.1,3-7.3,4.7-11.7,4.5c-0.1-4.3,1.5-8.5,4.6-11.5c4.2-4.1,20.8-16.2,30.6-23.3C450.1,204.5,437.9,220.8,433.7,225z"/>
			<path class="st0" d="M515.9,216.8c-6.3-6.2-37.9-28.7-38.2-28.9l-6.5-4.6l4.7,6.4c0.9,1.4,23,31.7,29.2,37.9
				c3.6,3.5,8.4,5.5,13.5,5.5c0.5,0,1.1-0.1,1.6-0.2l1-0.1l0.1-1C521.9,226.2,519.9,220.7,515.9,216.8z M507,225.7
				c-4.4-4.3-17.5-21.8-24.2-30.9l0.6,0.4c10.1,7.3,26.5,19.3,30.7,23.5c3.1,3.1,4.8,7.4,4.7,11.8
				C514.5,230.5,510.2,228.8,507,225.7z"/>
			<path class="st0" d="M465,190.5c-3.2,5-19.5,30.3-22.3,37.1c-1.9,4.8-1.5,10.3,1.2,14.8l0.5,0.7l0.9-0.2
				c5.1-1.3,9.3-4.8,11.4-9.6c2.8-6.8,9.5-36,10.8-41.9l1.6-7.1L465,190.5z M463.2,198.4l-0.1,0.5c-2.4,10.2-6.8,28.6-8.8,33.5
				c-1.6,3.7-4.8,6.6-8.6,7.9c-1.8-3.6-2-7.8-0.5-11.5C447.3,223.7,457.2,207.8,463.2,198.4L463.2,198.4l0.1-0.2
				C463.3,198.2,463.2,198.3,463.2,198.4z"/>
			<path class="st0" d="M497.2,227.7c-2.8-6.8-19-32.2-22.3-37.3l-4-6.2l1.6,7.2c0.1,0.3,7.8,34.5,10.9,42c2.1,4.8,6.2,8.3,11.3,9.7
				l0.9,0.2l0.6-0.8C498.8,238,499.2,232.5,497.2,227.7z M494.3,240.3c-3.8-1.3-6.9-4.2-8.5-7.9c-2.1-5.1-6.7-24.2-9.1-34.2h0.1
				c5.5,8.7,15.9,25.5,18,30.5C496.2,232.5,496.1,236.7,494.3,240.3z"/>
			<path class="st0" d="M471.3,191.7l-1.3-7.1l-1.3,7.1c-1,5.7-6.2,34.7-6.2,42c0.1,5.1,2.6,9.9,6.7,13l0.8,0.5l0.7-0.5
				c4.2-3,6.7-7.8,6.8-13C477.5,225.9,471.3,192,471.3,191.7z M470,244c-3-2.6-4.8-6.3-4.9-10.2c0-5.4,3.1-24.4,4.9-34.3
				c1.9,10.8,4.9,29,4.9,34.3C474.8,237.7,473,241.4,470,244z"/>
		</g>
	</g>
	<g>
		<g>
			<path class="st0" d="M327.8,273.8h-26v50.5h7.4V305c3-1.5,6.3-2.2,9.7-2h9c9,0,14.8-5.6,14.8-14.6
				C342.6,279.3,336.8,273.8,327.8,273.8z M327.8,295.5h-9c-3.3-0.2-6.7,0.5-9.7,2v-16.3h18.6c4.9,0,7.5,2.2,7.5,7
				C335.3,293.2,332.6,295.5,327.8,295.5z"/>
			<path class="st0" d="M578.2,316.9c-3.3,0-4.5-1-7.6-5.7l-4-8.1c7.4-1.8,11.7-6.8,11.7-14.4c0-9.6-6.8-14.9-16-14.9h-26.6v50.5
				h7.4v-19c3-1.5,6.3-2.1,9.6-2h5.9l6.1,13c3.9,8,9.9,8,15.8,8v-7.5H578.2z M562.3,296.1h-9.7c-3.3-0.2-6.6,0.4-9.6,2v-16.8h19.2
				c4.8,0,8.6,1.7,8.6,7.1C571,293.8,567.4,296.1,562.3,296.1z"/>
			<path class="st0" d="M614,273h-8.2l2.8,6.2l-22,45.2h8l1.3-2.4c1.2-2.1,6.1-5,15.4-5h15.4l3.3,7.4h8.3L614,273z M614.1,309.5
				c-6.9,0-11.1,1.3-12.9,2.8l11.3-24.2l11,21.3H614.1z"/>
			<path class="st0" d="M368,273h-8.2l2.8,6.2l-22,45.2h8l1.3-2.4c1.1-2.1,6.1-5,15.4-5h15.4l3.3,7.4h8.3L368,273z M368.1,309.5
				c-6.9,0-11.1,1.3-12.9,2.8l11.2-24.2l11,21.3H368.1z"/>
			<rect x="513.5" y="273.8" class="st0" width="7.3" height="50.5"/>
			<polygon class="st0" points="451.5,273.8 472.3,298.6 493.4,273.8 502.8,273.8 497,280.9 497,324.4 489.7,324.4 489.7,289.6 
				472.3,310.3 455.1,289.6 455.1,324.4 447.9,324.4 447.9,280.9 442,273.8 			"/>
			<polygon class="st0" points="409.4,273.8 409.4,317 437.5,317 437.5,324.4 402,324.4 402,273.8 			"/>
		</g>
	</g>
	<g>
		<g>
			<path class="st0" d="M796.8,358.6c1.1-0.1,1.9-1,1.8-2.1c0-0.6-0.3-1.2-0.8-1.6c-0.5-0.4-1.1-0.6-1.7-0.5h-3.5v7.8h0.9v-3.5h2.4
				l2.5,3.5h1L796.8,358.6z M793.5,357.9v-2.8h2.7v0c1,0,1.6,0.6,1.6,1.4s-0.6,1.4-1.6,1.4H793.5z"/>
			<path class="st0" d="M800.7,352.9c-1.4-1.5-3.3-2.3-5.4-2.2c-2,0-4,0.8-5.4,2.2c-1.5,1.4-2.3,3.4-2.2,5.4c0,2,0.8,4,2.2,5.4l0,0
				c3,2.9,7.7,2.8,10.6-0.1C803.5,360.7,803.6,355.9,800.7,352.9z M800.4,363.4C800.4,363.4,800.4,363.4,800.4,363.4
				c-2.8,2.8-7.3,2.8-10,0c-1.3-1.3-2.1-3.1-2-5c0-1.9,0.7-3.7,2-5.1c1.3-1.4,3.1-2.1,5-2.1c1.9,0,3.7,0.7,5,2.1
				c1.4,1.3,2.1,3.2,2.1,5.1C802.5,360.2,801.7,362,800.4,363.4z"/>
			<path class="st0" d="M467.5,444H466c-7,0-9.5-2.2-16.3-12.3l-8.4-17.5c15.7-3.9,25-14.6,25-31.1c0-20.6-14.4-32.2-34.2-32.2H375
				v109.1h15.9v-41c6.5-3.5,13.5-4.2,20.5-4.2H424l13.2,28c8.3,17.2,21.1,17.2,33.8,17.2v-16.2L467.5,444z M432.1,399h-20.7
				c-7.1,0-14,0.5-20.5,4.2l0-36.3h41.2c10.3,0,18.5,3.9,18.5,15.3C450.6,394,443,399,432.1,399z"/>
			<path class="st0" d="M317.2,349.6h-17.5l6,13.4l-47,97.6h17.2l2.8-5.1c2.5-4.5,13.1-10.8,32.9-10.8h33l7.1,16h17.8L317.2,349.6z
				 M317.3,428.6c-14.8,0-23.7,2.8-27.6,6.2l24.1-52.2l23.7,46.1H317.3z"/>
			<path class="st0" d="M528,351h-55.3l7,16.1h8.6v93h40.1c14.5,0,24.8-3.8,34.7-14.5c10.2-11,16-25.5,16.2-40.5
				C579.2,375.6,557.6,351,528,351z M528.4,444.2h-24.6v-77.1h24.3c22.4,0,35.1,18.1,35.1,39.2C563.2,426.6,549.5,444.2,528.4,444.2
				z"/>
			<path class="st0" d="M665.3,351v16.1h-60.5v33.1c6.5-3.8,13.4-4.2,20.5-4.2h23.7v16.2h-23.7c-7,0-14,0.7-20.5,4.2v27.8h66.9V460
				h-82.8V351H665.3z"/>
			<polygon class="st0" points="697.3,351 767,434.4 767,351 783.1,351 783.1,460.1 767.3,460.1 705,385.1 705,460.1 689.4,460.1 
				689.4,366.4 676.8,351 			"/>
			<path class="st0" d="M215.7,348.2c15.7,0,30.7,6.2,41.8,17.3l-10.1,12c-8.4-8.5-19.8-13.3-31.8-13.2c-24.2,0-42.8,17.4-42.8,42
				c0,23.5,20.2,40.8,42.9,40.8c10.5,0.1,20.6-3.7,28.5-10.5v-19.9h-14l-6.8-15.9h36.5v42.5c-11.3,12.6-27.5,19.8-44.4,19.8
				c-15.6,0.2-30.5-5.9-41.5-17c-11-11.1-17.1-26.1-16.9-41.7C157.2,372.2,184.5,348.2,215.7,348.2z"/>
		</g>
	</g>
</g>
</svg>
