<?xml version="1.0" encoding="UTF-8"?>
<svg id="_Слой_2" data-name="Слой 2" xmlns="http://www.w3.org/2000/svg" viewBox="0 0 319.13 319.19">
  <defs>
    <style>
      .cls-1 {
        fill: #fff;
      }
    </style>
  </defs>
  <g id="_Слой_1-2" data-name="Слой 1">
    <g>
      <path class="cls-1" d="m.14,159.58C.14,135.87.04,112.18.14,88.47c.1-16.6,3.5-32.5,11.7-47C24.94,18.08,45.74,5.97,71.54,1.68c6.4-1.1,12.9-1.6,19.3-1.6C137.24-.03,183.64-.03,230.04.08c15.7,0,30.8,3.1,44.8,10.2,25,12.7,38,34,42.6,61,1.1,6.4,1.6,12.9,1.6,19.3.1,47.8.2,95.6-.2,143.3-.2,17.7-4.9,34.5-15,49.4-14.6,21.5-36,31.5-61,34.8-6.3.8-12.7,1-19,1-46.3,0-92.6.4-138.8-.3-24.3-.4-46.2-8.6-63.2-27.1-12.7-13.9-18.8-30.7-20.9-49-.7-6.4-.9-12.9-.9-19.4-.1-21.3,0-42.5.1-63.7-.1,0,0,0,0,0Zm63.8,131.4c22.1-36.3,55.3-51.9,95.9-51.8s73.8,15.7,95.5,51.8c9.9-3.3,18.6-8.5,25.4-16.5,10.5-12.4,14.3-27.3,14.4-43.1.3-47.4.1-94.8.1-142.2,0-3.9-.3-7.7-.9-11.5-2.9-20.4-11.7-37-30.9-46.4-9.5-4.7-19.8-7-30.3-7.1-48.9-.2-97.8-.1-146.7,0-4.5,0-9,.7-13.3,1.5-23,4.4-39.2,17.1-45.5,40.2-2.4,8.9-3.4,18.4-3.5,27.7-.3,43.9-.3,87.8,0,131.7,0,8.2.7,16.5,2.5,24.5,4.5,20.6,17,34.6,37.3,41.2Z"/>
      <path class="cls-1" d="m216.84,153.08c-.2,31.8-26,57.4-57.5,57.1-31.7-.4-56.9-26.1-56.7-57.9.3-31.6,25.8-56.8,57.5-56.6,31.6.3,56.9,25.8,56.7,57.4Z"/>
    </g>
  </g>
</svg>